<svg width="60" height="60" viewBox="0 0 60 60" fill="none" xmlns="http://www.w3.org/2000/svg">
<ellipse cx="29.8484" cy="27.4543" rx="22.4402" ry="22.3176" fill="#FFDA8E"/>
<path fill-rule="evenodd" clip-rule="evenodd" d="M41.9074 27.9386C41.9074 24.9686 40.6699 21.9436 39.7074 20.1011C39.7074 20.1011 38.6899 17.7361 38.6899 16.6361V16.0586H30.8249V16.6361C30.8249 17.7361 29.8074 20.1011 29.8074 20.1011C28.8724 21.9436 27.6074 24.9411 27.6074 27.9386C27.6074 32.0911 27.6074 45.7586 27.6074 49.2236H41.8524C41.9074 45.7586 41.9074 32.0911 41.9074 27.9386Z" fill="#FDAE00"/>
<mask id="mask0" mask-type="alpha" maskUnits="userSpaceOnUse" x="30" y="12" width="9" height="5">
<path fill-rule="evenodd" clip-rule="evenodd" d="M30.8516 12.8945H38.7166V16.0845H30.8516V12.8945Z" fill="white"/>
</mask>
<g mask="url(#mask0)">
<path fill-rule="evenodd" clip-rule="evenodd" d="M38.7166 12.8945H38.6066H36.3791H33.1891H30.9341H30.8516V16.0845H38.7166V12.8945Z" fill="white" fill-opacity="0.2"/>
</g>
<path d="M29.1191 47.8491V28.9566C29.1191 25.8766 30.5216 22.6316 31.3741 20.9816L31.4016 20.9266L31.4291 20.8716C31.5941 20.4866 32.3091 18.7541 32.5841 17.3516" stroke="white" stroke-width="1.00347" stroke-linecap="round" stroke-linejoin="round"/>
<path fill-rule="evenodd" clip-rule="evenodd" d="M29.1202 49.6345H41.8802C41.8802 46.967 41.8802 32.282 41.8802 27.937C41.8802 24.967 40.6427 21.942 39.6802 20.0995C39.6802 20.0995 38.6627 17.7345 38.6627 16.6345V12.8945H38.5802H36.3527H33.1627H30.9352H30.8527V16.662C30.8527 17.762 29.8352 20.127 29.8352 20.127C28.9002 21.9695 27.6352 24.967 27.6352 27.9645C27.6352 31.3745 27.6352 43.3095 27.6352 47.8745C27.6627 47.847 27.3602 49.6345 29.1202 49.6345Z" stroke="#575756" stroke-width="1.00347" stroke-linecap="round" stroke-linejoin="round"/>
<mask id="mask1" mask-type="alpha" maskUnits="userSpaceOnUse" x="2" y="2" width="56" height="56">
<path fill-rule="evenodd" clip-rule="evenodd" d="M2.5 57.5H57.5V2.5H2.5V57.5Z" fill="white"/>
</mask>
<g mask="url(#mask1)">
<path fill-rule="evenodd" clip-rule="evenodd" d="M40.0919 13.1436C40.0919 13.5561 39.7619 13.9136 39.3219 13.9136H30.1919C29.7794 13.9136 29.4219 13.5836 29.4219 13.1436V12.0161C29.4219 11.6036 29.7519 11.2461 30.1919 11.2461H39.3494C39.7619 11.2461 40.1194 11.5761 40.1194 12.0161V13.1436H40.0919Z" fill="white"/>
<path fill-rule="evenodd" clip-rule="evenodd" d="M40.0919 13.1436C40.0919 13.5561 39.7619 13.9136 39.3219 13.9136H30.1919C29.7794 13.9136 29.4219 13.5836 29.4219 13.1436V12.0161C29.4219 11.6036 29.7519 11.2461 30.1919 11.2461H39.3494C39.7619 11.2461 40.1194 11.5761 40.1194 12.0161V13.1436H40.0919Z" stroke="#575756" stroke-width="1.00347" stroke-linecap="round" stroke-linejoin="round"/>
<path fill-rule="evenodd" clip-rule="evenodd" d="M33.3828 27.2773C30.3578 28.8173 28.0203 31.6223 27.1953 35.1973H35.8853C36.0778 32.2823 35.1428 29.4773 33.3828 27.2773Z" fill="#708E07"/>
<path fill-rule="evenodd" clip-rule="evenodd" d="M33.3828 27.2773C30.3578 28.8173 28.0203 31.6223 27.1953 35.1973H35.8853C36.0778 32.2823 35.1428 29.4773 33.3828 27.2773Z" stroke="#575756" stroke-width="1.00347" stroke-linecap="round" stroke-linejoin="round"/>
<path d="M29.2852 33.6852C30.0552 31.8977 31.3202 30.3852 32.9427 29.2852" stroke="white" stroke-width="1.00347" stroke-linecap="round" stroke-linejoin="round"/>
<path fill-rule="evenodd" clip-rule="evenodd" d="M29.1754 33.4617C29.1754 36.5752 26.6514 39.0992 23.5379 39.0992C20.4244 39.0992 17.9004 36.5752 17.9004 33.4617C17.9004 30.3482 20.4244 27.8242 23.5379 27.8242C26.6514 27.8242 29.1754 30.3482 29.1754 33.4617Z" fill="#D23F4E"/>
<path fill-rule="evenodd" clip-rule="evenodd" d="M29.1754 33.4617C29.1754 36.5752 26.6514 39.0992 23.5379 39.0992C20.4244 39.0992 17.9004 36.5752 17.9004 33.4617C17.9004 30.3482 20.4244 27.8242 23.5379 27.8242C26.6514 27.8242 29.1754 30.3482 29.1754 33.4617Z" stroke="#575756" stroke-width="1.00347" stroke-linecap="round" stroke-linejoin="round"/>
<path d="M23.5371 37.5898C21.2546 37.5898 19.4121 35.7473 19.4121 33.4648C19.4121 31.1823 21.2546 29.3398 23.5371 29.3398" stroke="white" stroke-width="1.00347" stroke-linecap="round" stroke-linejoin="round"/>
<path fill-rule="evenodd" clip-rule="evenodd" d="M25.1605 36.3269C24.473 33.1369 22.548 30.5519 19.9905 28.9294C19.963 28.8469 19.963 28.7919 19.963 28.7369C19.1655 25.1344 16.8005 22.2744 13.748 20.7344C11.768 23.2369 10.833 26.5094 11.3555 29.8644C10.338 29.3969 9.29297 29.0669 8.19297 28.9294C7.01047 32.1469 7.25797 35.8319 9.12797 38.9944C11.0255 42.1569 14.1605 44.1369 17.543 44.6319C17.873 43.7519 18.0655 42.8444 18.1755 41.9369C19.3305 43.7794 20.953 45.2369 22.8505 46.1994C24.9955 43.5044 25.9305 39.9294 25.1605 36.3269Z" fill="#94C01E"/>
<path fill-rule="evenodd" clip-rule="evenodd" d="M25.1605 36.3269C24.473 33.1369 22.548 30.5519 19.9905 28.9294C19.963 28.8469 19.963 28.7919 19.963 28.7369C19.1655 25.1344 16.8005 22.2744 13.748 20.7344C11.768 23.2369 10.833 26.5094 11.3555 29.8644C10.338 29.3969 9.29297 29.0669 8.19297 28.9294C7.01047 32.1469 7.25797 35.8319 9.12797 38.9944C11.0255 42.1569 14.1605 44.1369 17.543 44.6319C17.873 43.7519 18.0655 42.8444 18.1755 41.9369C19.3305 43.7794 20.953 45.2369 22.8505 46.1994C24.9955 43.5044 25.9305 39.9294 25.1605 36.3269Z" stroke="#575756" stroke-width="1.00347" stroke-linecap="round" stroke-linejoin="round"/>
<path d="M12.8668 29.6133C12.5093 27.2208 12.9768 24.7733 14.2143 22.7383" stroke="white" stroke-width="1.00347" stroke-linecap="round" stroke-linejoin="round"/>
<path d="M10.4467 38.1952C9.09918 35.9127 8.65918 33.2177 9.26418 30.6602C9.75918 30.7977 10.2542 30.9902 10.7492 31.2102" stroke="white" stroke-width="1.00347" stroke-linecap="round" stroke-linejoin="round"/>
<path fill-rule="evenodd" clip-rule="evenodd" d="M37.7275 35.0078H5.9375C5.9375 40.8653 8.4675 46.1178 12.455 49.7478H31.2375C35.225 46.0903 37.7275 40.8378 37.7275 35.0078Z" fill="#E1E4E6"/>
<path fill-rule="evenodd" clip-rule="evenodd" d="M37.7275 35.0078H5.9375C5.9375 40.8653 8.4675 46.1178 12.455 49.7478H31.2375C35.225 46.0903 37.7275 40.8378 37.7275 35.0078Z" stroke="#575756" stroke-width="1.00347" stroke-linecap="round" stroke-linejoin="round"/>
<path d="M30.6041 48.2033H13.0316C9.81406 45.0958 7.86156 40.9433 7.47656 36.4883" stroke="white" stroke-width="1.00347" stroke-linecap="round" stroke-linejoin="round"/>
<path fill-rule="evenodd" clip-rule="evenodd" d="M52.8249 41.2186V42.1261C52.8249 43.0061 52.0824 43.7486 51.2024 43.7486H30.6049C29.7249 43.7486 28.9824 43.0061 28.9824 42.1261V41.2186V39.8711H52.8249V41.3836" fill="#8E6940"/>
<path d="M52.8249 41.2186V42.1261C52.8249 43.0061 52.0824 43.7486 51.2024 43.7486H30.6049C29.7249 43.7486 28.9824 43.0061 28.9824 42.1261V41.2186V39.8711H52.8249V41.3836" stroke="#575756" stroke-width="0.92598" stroke-linecap="round" stroke-linejoin="round"/>
<path fill-rule="evenodd" clip-rule="evenodd" d="M52.4954 39.375H52.3854H51.2854H47.9854H46.8854H43.5854H39.1579H38.9654H38.0579H34.7579H33.6579H30.3579H29.2579H28.9829C28.1854 39.375 27.5254 40.035 27.5254 40.8875V42.6475C27.9104 42.675 28.3229 42.51 28.5429 42.0975L28.9004 41.465C29.0104 41.2725 29.1754 41.1075 29.3679 41.025C29.8354 40.805 30.4679 40.9425 30.7704 41.465L31.1279 42.0975C31.5404 42.8125 32.5854 42.8125 32.9704 42.0975L33.3279 41.465C33.7404 40.75 34.7854 40.75 35.1704 41.465L35.5279 42.0975C35.9404 42.8125 36.9854 42.8125 37.3704 42.0975L37.7279 41.465C38.1404 40.75 39.1854 40.75 39.5704 41.465L39.9279 42.0975C40.3404 42.8125 41.3854 42.8125 41.7704 42.0975L42.1279 41.465C42.5404 40.75 43.5854 40.75 43.9704 41.465L44.3279 42.0975C44.7404 42.8125 45.7854 42.8125 46.1704 42.0975L46.5279 41.465C46.9404 40.75 47.9854 40.75 48.3704 41.465L48.7279 42.0975C49.1404 42.8125 50.1854 42.8125 50.5704 42.0975L50.9279 41.465C51.2304 40.915 51.9454 40.7775 52.4129 41.08C52.5504 41.1625 52.6879 41.3 52.7704 41.465L53.1279 42.0975C53.3204 42.4275 53.6504 42.62 53.9804 42.6475V40.8325C53.9529 40.035 53.2929 39.375 52.4954 39.375Z" fill="#60C684"/>
<path fill-rule="evenodd" clip-rule="evenodd" d="M52.4954 39.375H52.3854H51.2854H47.9854H46.8854H43.5854H39.1579H38.9654H38.0579H34.7579H33.6579H30.3579H29.2579H28.9829C28.1854 39.375 27.5254 40.035 27.5254 40.8875V42.6475C27.9104 42.675 28.3229 42.51 28.5429 42.0975L28.9004 41.465C29.0104 41.2725 29.1754 41.1075 29.3679 41.025C29.8354 40.805 30.4679 40.9425 30.7704 41.465L31.1279 42.0975C31.5404 42.8125 32.5854 42.8125 32.9704 42.0975L33.3279 41.465C33.7404 40.75 34.7854 40.75 35.1704 41.465L35.5279 42.0975C35.9404 42.8125 36.9854 42.8125 37.3704 42.0975L37.7279 41.465C38.1404 40.75 39.1854 40.75 39.5704 41.465L39.9279 42.0975C40.3404 42.8125 41.3854 42.8125 41.7704 42.0975L42.1279 41.465C42.5404 40.75 43.5854 40.75 43.9704 41.465L44.3279 42.0975C44.7404 42.8125 45.7854 42.8125 46.1704 42.0975L46.5279 41.465C46.9404 40.75 47.9854 40.75 48.3704 41.465L48.7279 42.0975C49.1404 42.8125 50.1854 42.8125 50.5704 42.0975L50.9279 41.465C51.2304 40.915 51.9454 40.7775 52.4129 41.08C52.5504 41.1625 52.6879 41.3 52.7704 41.465L53.1279 42.0975C53.3204 42.4275 53.6504 42.62 53.9804 42.6475V40.8325C53.9529 40.035 53.2929 39.375 52.4954 39.375Z" stroke="#575756" stroke-width="0.92598" stroke-linecap="round" stroke-linejoin="round"/>
<path fill-rule="evenodd" clip-rule="evenodd" d="M46.6381 31.3477H35.6106C32.2831 31.3477 29.3956 33.6852 27.9656 37.0677C27.4981 38.1677 28.1581 39.4602 29.1756 39.4602H53.0456C54.0631 39.4602 54.7231 38.1677 54.2556 37.0677C52.8531 33.6852 49.9656 31.3477 46.6381 31.3477Z" fill="#E5BE80"/>
<path fill-rule="evenodd" clip-rule="evenodd" d="M46.6381 31.3477H35.6106C32.2831 31.3477 29.3956 33.6852 27.9656 37.0677C27.4981 38.1677 28.1581 39.4602 29.1756 39.4602H53.0456C54.0631 39.4602 54.7231 38.1677 54.2556 37.0677C52.8531 33.6852 49.9656 31.3477 46.6381 31.3477Z" stroke="#575756" stroke-width="0.92598" stroke-linecap="round" stroke-linejoin="round"/>
<path fill-rule="evenodd" clip-rule="evenodd" d="M35.4451 33.823C35.4451 34.0705 35.2251 34.2905 34.9501 34.2905C34.6751 34.2905 34.4551 34.0705 34.4551 33.823C34.4551 33.5755 34.6751 33.3555 34.9501 33.3555C35.2251 33.3555 35.4451 33.5755 35.4451 33.823Z" fill="#575756"/>
<path fill-rule="evenodd" clip-rule="evenodd" d="M37.8377 36.1316C37.8377 36.3791 37.6177 36.5991 37.3427 36.5991C37.0677 36.5991 36.8477 36.3791 36.8477 36.1316C36.8477 35.8841 37.0677 35.6641 37.3427 35.6641C37.6177 35.6916 37.8377 35.8841 37.8377 36.1316Z" fill="#575756"/>
<path fill-rule="evenodd" clip-rule="evenodd" d="M41.9627 34.7566C41.9627 35.0041 41.7427 35.2241 41.4677 35.2241C41.1927 35.2241 40.9727 35.0041 40.9727 34.7566C40.9727 34.5091 41.1927 34.2891 41.4677 34.2891C41.7427 34.2891 41.9627 34.5091 41.9627 34.7566Z" fill="#575756"/>
<path fill-rule="evenodd" clip-rule="evenodd" d="M45.6755 37.4792C45.6755 37.7267 45.4555 37.9467 45.1805 37.9467C44.9055 37.9467 44.6855 37.7267 44.6855 37.4792C44.6855 37.2317 44.9055 37.0117 45.1805 37.0117C45.4555 37.0117 45.6755 37.2042 45.6755 37.4792Z" fill="#575756"/>
<path fill-rule="evenodd" clip-rule="evenodd" d="M48.1228 36.3816C48.1228 36.6398 47.9012 36.8491 47.6278 36.8491C47.3544 36.8491 47.1328 36.6398 47.1328 36.3816C47.1328 36.1234 47.3544 35.9141 47.6278 35.9141C47.9012 35.9141 48.1228 36.1234 48.1228 36.3816Z" fill="#575756"/>
<path fill-rule="evenodd" clip-rule="evenodd" d="M49.2224 33.9597C49.2224 34.2072 49.0024 34.4272 48.7274 34.4272C48.4524 34.4272 48.2324 34.2072 48.2324 33.9597C48.2324 33.7122 48.4524 33.4922 48.7274 33.4922C49.0024 33.5197 49.2224 33.7122 49.2224 33.9597Z" fill="#575756"/>
<path fill-rule="evenodd" clip-rule="evenodd" d="M52.0818 36.6003C52.0818 36.8478 51.8618 37.0678 51.5868 37.0678C51.3118 37.0678 51.0918 36.8478 51.0918 36.6003C51.0918 36.3528 51.3118 36.1328 51.5868 36.1328C51.8618 36.1328 52.0818 36.3528 52.0818 36.6003Z" fill="#575756"/>
<path fill-rule="evenodd" clip-rule="evenodd" d="M32.5017 36.8464C32.5017 37.0939 32.2817 37.3139 32.0067 37.3139C31.7317 37.3139 31.5117 37.0939 31.5117 36.8464C31.5117 36.5989 31.7317 36.3789 32.0067 36.3789C32.2817 36.3789 32.5017 36.5989 32.5017 36.8464Z" fill="#575756"/>
<path fill-rule="evenodd" clip-rule="evenodd" d="M44.9334 33.0534C44.9334 33.3116 44.7117 33.5209 44.4384 33.5209C44.165 33.5209 43.9434 33.3116 43.9434 33.0534C43.9434 32.7952 44.165 32.5859 44.4384 32.5859C44.7117 32.5859 44.9334 32.7952 44.9334 33.0534Z" fill="#575756"/>
<path fill-rule="evenodd" clip-rule="evenodd" d="M51.8628 49.9098H29.9178C28.7903 49.9098 27.8828 49.0023 27.8828 47.8748C27.8828 46.7473 28.7903 45.8398 29.9178 45.8398H51.8353C52.9628 45.8398 53.8703 46.7473 53.8703 47.8748C53.8978 48.9748 52.9628 49.9098 51.8628 49.9098Z" fill="#E5BE80"/>
<path fill-rule="evenodd" clip-rule="evenodd" d="M51.8628 49.9098H29.9178C28.7903 49.9098 27.8828 49.0023 27.8828 47.8748V47.8748C27.8828 46.7473 28.7903 45.8398 29.9178 45.8398H51.8353C52.9628 45.8398 53.8703 46.7473 53.8703 47.8748V47.8748C53.8978 48.9748 52.9628 49.9098 51.8628 49.9098Z" stroke="#575756" stroke-width="0.92598" stroke-linecap="round" stroke-linejoin="round"/>
<path fill-rule="evenodd" clip-rule="evenodd" d="M53.1271 43.75H46.1146H35.7196H28.7071C28.1296 43.75 27.6621 44.2175 27.6621 44.795C27.6621 45.3725 28.1296 45.84 28.7071 45.84H35.7196H46.1146H53.1271C53.7046 45.84 54.1721 45.3725 54.1721 44.795C54.1996 44.2175 53.7046 43.75 53.1271 43.75Z" fill="#F8AE46"/>
<path fill-rule="evenodd" clip-rule="evenodd" d="M53.1271 43.75H46.1146H35.7196H28.7071C28.1296 43.75 27.6621 44.2175 27.6621 44.795C27.6621 45.3725 28.1296 45.84 28.7071 45.84H35.7196H46.1146H53.1271C53.7046 45.84 54.1721 45.3725 54.1721 44.795C54.1996 44.2175 53.7046 43.75 53.1271 43.75Z" stroke="#575756" stroke-width="1.00067" stroke-linecap="round" stroke-linejoin="round"/>
<path d="M29.3945 46.7508H51.587" stroke="white" stroke-width="0.6875" stroke-linecap="round" stroke-linejoin="round"/>
<path d="M28.9824 44.4383H52.5499" stroke="white" stroke-width="0.6875" stroke-linecap="round" stroke-linejoin="round"/>
<path d="M35.1152 32.2273H47.0502" stroke="white" stroke-width="0.6875" stroke-linecap="round" stroke-linejoin="round"/>
</g>
</svg>
